<?xml version="1.0" encoding="UTF-8"?>
<svg id="Layer_1" xmlns="http://www.w3.org/2000/svg" version="1.1" viewBox="0 0 1080 1080">
  <!-- Generator: Adobe Illustrator 30.3.0, SVG Export Plug-In . SVG Version: 2.1.3 Build 182)  -->
  <defs>
    <style>
      .st0 {
        fill: #fff;
      }

      .st1 {
        fill: #c4161c;
      }
    </style>
  </defs>
  <g id="Group_634">
    <g id="Group_633">
      <g id="Group_632">
        <g id="Group_631">
          <rect id="Rectangle_14" class="st1" x="-36.9" y="-28.4" width="1153.9" height="1136.9" rx="67.5" ry="67.5"/>
          <g id="Group_13">
            <g id="Group_8">
              <path id="Path_5" class="st0" d="M381,598l45.2-75,7.2,75h-52.4Z"/>
              <path id="Path_6" class="st0" d="M425.7,525.2l6.9,72.1h-50.3l43.4-72.1M426.8,520.7l-47.1,78.1h54.6l-7.5-78.1h0Z"/>
            </g>
            <g id="Group_9">
              <path id="Path_7" class="st0" d="M212.9,598l110.7-208.5h87l11.6,121.7-49.8,82.5-3.1-32h-79.3l-18.6,36.1h-58.7ZM311.2,522.6h55.9l-7.2-92.3h-1.8l-47,92.3Z"/>
              <path id="Path_8" class="st0" d="M409.9,390.3l11.6,120.8-48.4,80.5-2.8-29.1v-1.3h-80.6l-.4.7-18.1,35.4h-56.9l109.9-207h85.9M310,523.3h57.9v-1.6c-.1,0-7.2-90.9-7.2-90.9v-1.3h-2.9l-.4.7-46.4,90.8-1,2.2M411.3,388.8h-88.1l-111.5,209.9h60.3l18.6-36.1h78.1l3.2,33.6,51.1-84.7-11.7-122.8h0ZM312.4,521.8l46.4-90.8h.6l7,90.8h-54Z"/>
            </g>
            <g id="Group_10">
              <path id="Path_9" class="st0" d="M546.4,599.6c-15.7,0-28.1-.4-37.7-1.3-9-.6-17.8-2.7-26.2-6-7.4-2.8-13.6-8-17.7-14.8-4.7-8.3-6.9-17.7-6.4-27.2.2-10,1.5-19.9,3.8-29.6l11.8-54.3c2.8-14.5,8.2-28.4,15.9-41,6.2-9.9,14.7-18.1,24.9-23.9,10.4-5.6,21.7-9.4,33.3-11.1,15-2.1,30.1-3.1,45.2-2.9,14,0,25.3.4,34.4,1.3,7.8.7,15.5,2.5,22.8,5.6,5.9,2.5,10.9,6.8,14,12.4,3.4,6.8,5.1,14.4,4.7,22.1-.2,8.9-1.3,17.8-3.2,26.5l-1.6,7.5h-58.2l1.5-7.2c0-.6.1-1.3.3-1.9v-2c.8-6-2.4-11.7-7.9-14.2-7.7-2.4-15.9-3.5-24-3.1-6.8-.2-13.7.6-20.3,2.2-4.6,1.2-8.9,3.4-12.6,6.6-3.3,3.3-5.8,7.3-7.5,11.7-2.3,6.5-4.1,13.1-5.4,19.9l-7,33.2c-2.2,8.1-3.6,16.4-4.1,24.7-.5,5.9,2.2,11.7,7,15.1,7.6,3.6,15.9,5.2,24.3,4.5,10,.6,20.1-1,29.4-4.7,6-3.2,10.2-10.7,12.9-22.1l1-5.6h58.2l-.9,5.3c-2.5,12.2-6.3,24-11.3,35.4-5,9.7-12.6,17.9-21.8,23.7-9.1,6.4-19.5,10.7-30.4,12.6-13.7,1.9-27.5,2.7-41.3,2.5Z"/>
              <path id="Path_10" class="st0" d="M593.4,388.7c14,0,25.3.4,34.2,1.3,7.7.7,15.3,2.5,22.5,5.4,5.8,2.4,10.7,6.7,13.7,12.1,3.4,6.7,5,14.3,4.7,21.8-.2,8.9-1.3,17.7-3.2,26.3l-1.5,6.9h-56.8l1.3-6.3v-.3c0-.5,0-1,.3-1.5v-.3c.1,0,.1-2,.1-2,.8-6.3-2.5-12.4-8.3-14.9-7.9-2.4-16.1-3.5-24.3-3.1-6.9-.2-13.8.6-20.5,2.2-4.8,1.2-9.2,3.6-12.9,6.9-3.4,3.4-5.9,7.5-7.6,12-2.3,6.5-4.1,13.1-5.4,19.9l-7.2,32.8c-2.3,8.2-3.6,16.6-4.1,25-.5,6.1,2.3,12.1,7.3,15.7,7.7,3.7,16.2,5.3,24.7,4.5,10.2.7,20.4-1,29.8-4.8,6.1-3.4,10.7-11,13.2-22.7l.9-5h56.8l-.7,4.4c-2.5,12.1-6.3,23.9-11.3,35.3-4.9,9.7-12.4,17.7-21.6,23.4-9,6.3-19.3,10.6-30.1,12.4-13.7,2-27.5,2.9-41.3,2.6-15.7,0-27.9-.4-37.6-1.3-8.9-.7-17.6-2.6-25.9-5.8-7.2-2.8-13.3-7.9-17.4-14.5-4.6-8.2-6.7-17.4-6.3-26.8.2-9.9,1.5-19.8,3.8-29.4l11.8-54.3c2.9-14.4,8.2-28.2,15.8-40.8,6.2-9.7,14.6-17.8,24.6-23.6,10.3-5.5,21.5-9.2,33-10.9,15-1.8,30.1-2.7,45.2-2.6M593.4,387.2c-15.2-.1-30.3.8-45.4,2.9-11.8,1.7-23.1,5.5-33.5,11.3-10.2,5.8-18.7,14.1-25,24-7.7,12.7-13.1,26.7-16.1,41.3l-11.8,54.3c-2.4,9.7-3.7,19.7-3.8,29.7-.5,9.6,1.8,19.1,6.6,27.5,4.3,6.8,10.6,12.1,18,15.1,8.4,3.3,17.3,5.3,26.3,6,9.8.9,22.4,1.3,37.7,1.3,13.8.2,27.7-.7,41.4-2.6,11.1-1.9,21.6-6.3,30.7-12.7,9.4-5.8,17-14.1,22.1-24,5.1-11.4,8.8-23.3,11.3-35.5l1-6.1h-59.7l-1.2,6.1c-2.5,11.4-6.7,18.6-12.4,21.6-9.2,3.7-19.2,5.3-29.1,4.7-8.2.7-16.5-.8-24-4.4-4.7-3.3-7.3-8.8-6.7-14.5.5-8.3,1.9-16.5,4.1-24.6l7.2-32.8c1.3-6.7,3.1-13.3,5.4-19.7,1.6-4.2,4-8.1,7.2-11.4,3.5-3.1,7.7-5.3,12.3-6.4,6.6-1.6,13.3-2.3,20-2,8-.4,16,.6,23.7,2.9,5.2,2.4,8.2,7.9,7.5,13.6v1.8c-.3.6-.4,1.2-.4,1.9l-1.6,8h59.7l1.9-8.3c2-8.7,3.1-17.7,3.2-26.6.3-7.8-1.3-15.6-4.8-22.5-3.2-5.7-8.3-10.2-14.3-12.7-7.3-3-15.1-4.9-23-5.6-9.1-.9-20.5-1.3-34.4-1.3Z"/>
            </g>
            <g id="Group_11">
              <path id="Path_11" class="st0" d="M666.1,598l45.8-208.5h155.4l-9.5,44.5h-98.9l-9.1,39.8h92.9l-8.2,37.4h-92.8l-9.4,42.3h100.9l-9.8,44.5h-157.4Z"/>
              <path id="Path_12" class="st0" d="M866.4,390.3l-9.2,43h-98.9l-.3,1.2-8.6,38.3-.4,1.8h92.9l-7.8,36h-92.9l-.3,1.2-8.9,40.8-.4,1.8h100.8l-9.5,43h-155.8l45.5-207h153.9M868.3,388.8h-157l-46.1,209.9h158.9l10.1-45.9h-100.9l8.9-40.8h92.9l8.5-38.9h-92.9l8.6-38.3h99l9.9-45.9h0Z"/>
            </g>
            <g id="Group_12">
              <path id="Path_13" class="st0" d="M213,691.1l5.7-30.4c1-5.7,1.8-10.7,2.3-14.6h11.4l-.9,7.3h.1c3.4-5.2,9.2-8.4,15.4-8.4,5.3-.6,10.1,3.2,10.7,8.5,0,0,0,0,0,0,3.4-5.3,9.2-8.5,15.5-8.5,5.9-.3,10.9,4.1,11.2,10,0,.7,0,1.4,0,2.1,0,2.6-.4,5.2-.9,7.8l-4.8,26.3h-12.9l4.5-24.7c.4-1.8.6-3.7.6-5.6,0-3.1-1.3-5.4-4.5-5.4s-8.8,6-10.5,15.1l-3.8,20.5h-12.6l4.7-24.9c.4-1.7.6-3.4.6-5.1,0-3.1-1-5.6-4.2-5.6s-9.2,6.4-11,15.2l-3.7,20.4h-12.9Z"/>
              <path id="Path_14" class="st0" d="M337.5,663.4c.9,14.8-10.3,27.6-25.2,28.6-.6,0-1.1,0-1.7,0-9.9.7-18.4-6.8-19.1-16.6,0-.7,0-1.4,0-2.1-.8-15,10.7-27.7,25.7-28.5.4,0,.8,0,1.2,0,9.9-.7,18.5,6.8,19.1,16.7,0,.6,0,1.2,0,1.9ZM305.2,673.1c0,5.3,2.6,8.8,7.2,8.8,7.3,0,11.4-10.7,11.4-18.4s-1.8-8.6-7.2-8.6c-7.8.2-11.6,11.3-11.4,18.3Z"/>
              <path id="Path_15" class="st0" d="M341.5,691.1l5.7-30.4c1.2-5.7,1.9-10.7,2.3-14.6h11.8l-.9,7.5h.1c3.6-5.3,9.6-8.5,15.9-8.5,6-.5,11.2,4,11.6,10,0,.8,0,1.5,0,2.3-.1,2.5-.3,5.1-.7,7.6l-5,26.2h-13.3l4.7-25c.3-1.7.4-3.4.4-5.1,0-3.1-1.2-5.4-4.4-5.4s-9.4,5.4-11.3,15.4l-3.8,20h-13.3v.2Z"/>
              <path id="Path_16" class="st0" d="M431.2,688.4c-5.3,2.4-11,3.6-16.8,3.5-9.6,1.2-18.4-5.7-19.5-15.3-.1-1.2-.2-2.5,0-3.7-.5-15,11.2-27.5,26.2-28.1,0,0,0,0,.1,0,9.2,0,15.7,5.1,15.7,13.4s-11.1,15.7-29.2,15.2c0,1.6.5,3.3,1.3,4.7,2.2,2.5,5.4,3.8,8.6,3.5,4.4,0,8.8-1,12.7-2.9l1,9.7ZM419.5,654.5c-5.3.3-9.7,4.1-10.7,9.4,10.4.1,15.5-1.3,15.5-5.4.1-2.3-1.8-3.9-4.8-3.9h0Z"/>
              <path id="Path_17" class="st0" d="M456,645.9l2.8,19.6c.6,4.7,1.2,7.9,1.5,10.7h.1c1-2.6,2-5.7,4-10.5l8.2-19.9h14l-16.1,32.5c-4.3,9.6-10.2,18.3-17.4,25.9-4,3.8-9,6.5-14.5,7.6l-2.9-11.4c2.7-.7,5.3-2,7.6-3.7,3-2,5.5-4.7,7.3-7.9.4-.7.5-1.5.3-2.2l-8.9-41h14v.3Z"/>
              <path id="Path_18" class="st0" d="M527.7,633.1l-2.3,12.7h9.7l-1.9,10.1h-9.8l-3.1,15.4c-.4,1.9-.7,3.8-.7,5.7-.3,1.8,1,3.5,2.8,3.8.3,0,.7,0,1,0,1.2,0,2.4,0,3.7-.1l-1.6,10.4c-2.6.7-5.2,1.1-7.9,1-7.9,0-11.7-4.1-11.7-9.7,0-2.8.3-5.6.9-8.3l3.5-18h-5.7l1.9-10.1h5.8l1.9-9.5,13.6-3.3Z"/>
              <path id="Path_19" class="st0" d="M534.1,691.1l5.1-26.9c1.3-6.9,1.9-14.3,2.3-18.3h11.6l-.9,9.2h.3c2.5-5.9,8.1-9.9,14.5-10.2.8,0,1.7,0,2.5.1l-2.6,12.9c-.7-.1-1.5-.2-2.2-.1-8.5,0-12.4,7.6-14.2,16.4l-3.1,16.8h-13.3Z"/>
              <path id="Path_20" class="st0" d="M597.1,691.1c.1-2.6.4-5.7.6-8.9h-.3c-2.7,6-8.6,9.8-15.2,9.9-7.7-.1-13.8-6.4-13.7-14.1,0-.5,0-1,.1-1.5-.6-16.8,12.6-30.9,29.5-31.5,1,0,1.9,0,2.9,0,5.1,0,10.1.8,14.9,2.2l-4.8,23.7c-1.2,6.7-1.8,13.5-1.8,20.3h-12.2ZM601,655.2c-1.2-.2-2.4-.4-3.7-.4-8.6,0-14.9,10.5-14.9,18.9s1.8,7.5,5.4,7.5,8.9-4.5,11-15.7l2.2-10.2Z"/>
              <path id="Path_21" class="st0" d="M619.1,691.1l5.7-30.4c1.2-5.7,1.9-10.7,2.3-14.6h11.8l-.9,7.5h.1c3.6-5.3,9.6-8.5,15.9-8.5,6-.5,11.2,4,11.6,10,0,.8,0,1.5,0,2.3-.1,2.5-.3,5.1-.7,7.6l-5,26.2h-13.3l4.7-25c.3-1.7.4-3.4.4-5.1,0-3.1-1.2-5.4-4.4-5.4s-9.4,5.4-11.3,15.4l-3.8,20h-13.3v.2Z"/>
              <path id="Path_22" class="st0" d="M672.8,679.1c3.7,1.8,7.7,2.9,11.8,3.1,3.8,0,5.7-1.9,5.7-4.1s-1.5-3.8-5.7-5.8c-5.3-1.8-9-6.5-9.7-12,0-9.4,8.2-15.5,19.9-15.5,4-.2,8,.6,11.7,2.3l-3.1,9.4c-2.8-1.3-5.9-2-9.1-2-3.5,0-5.8,1.6-5.8,4s1.9,3.4,5.6,5.1c4.8,2.5,10.1,6.1,10.1,12.4,0,10.4-8.8,15.9-20.6,15.9-4.9.2-9.7-1-13.9-3.5l3.1-9.2Z"/>
              <path id="Path_23" class="st0" d="M711.2,691.1l6.6-35.1h-5.8l1.9-10.1h5.8l.4-2.3c.7-5.6,3.4-10.8,7.6-14.6,3.6-2.9,8.2-4.5,12.9-4.4,2.4-.1,4.9.3,7.2,1.2l-2.3,10.7c-1.4-.6-2.9-.9-4.4-.9-4.2,0-6.9,3.8-7.8,8.3l-.4,2.2h8.9l-1.9,10.1h-8.9l-6.6,35.1h-13.1v-.2Z"/>
              <path id="Path_24" class="st0" d="M777.7,688.4c-5.3,2.4-11,3.6-16.8,3.5-9.6,1.2-18.4-5.7-19.5-15.3-.1-1.2-.2-2.5,0-3.7-.5-15,11.2-27.5,26.2-28.1,0,0,0,0,.1,0,9.2,0,15.7,5.1,15.7,13.4s-11.1,15.7-29.3,15.2c0,1.6.5,3.3,1.3,4.7,2.2,2.5,5.4,3.8,8.6,3.5,4.4,0,8.8-1,12.7-2.9l1.1,9.7ZM766,654.5c-5.3.3-9.7,4.1-10.7,9.4,10.4.1,15.5-1.3,15.5-5.4.1-2.3-1.8-3.9-4.8-3.9h0Z"/>
              <path id="Path_25" class="st0" d="M786.2,691.1l5.1-26.9c1.3-6.9,1.9-14.3,2.3-18.3h11.6l-.9,9.2h.3c2.5-5.9,8.1-9.9,14.5-10.2.8,0,1.7,0,2.5.1l-2.6,12.9c-.7-.1-1.5-.2-2.2-.1-8.5,0-12.4,7.6-14.2,16.4l-3.1,16.8h-13.3Z"/>
            </g>
          </g>
        </g>
      </g>
    </g>
  </g>
</svg>